PathFileType	4	(X/Y/Z)	Kaydara	
DataRate	CameraRate	NumFrames	NumMarkers	Units	OrigDataRate	OrigDataStartFrame	OrigNumFrames	
240.00	240.00	4	72	mm	240.00	90	359	
Frame#	Time	Hips			RightUpLeg			RightLeg			RightFoot			RightFoot_End			LeftUpLeg			LeftLeg			LeftFoot			LeftFoot_End			Spine			Spine1			Spine2			Spine3			Neck			Head			Head_End			RightShoulder			RightArm			RightForeArm			RightHand			RightHandThumb1			RightHandThumb2			RightHandThumb3			RightHandThumb3_End			RightInHandIndex			RightHandIndex1			RightHandIndex2			RightHandIndex3			RightHandIndex3_End			RightInHandMiddle			RightHandMiddle1			RightHandMiddle2			RightHandMiddle3			RightHandMiddle3_End			RightInHandRing			RightHandRing1			RightHandRing2			RightHandRing3			RightHandRing3_End			RightInHandPinky			RightHandPinky1			RightHandPinky2			RightHandPinky3			RightHandPinky3_End			LeftShoulder			LeftArm			LeftForeArm			LeftHand			LeftHandThumb1			LeftHandThumb2			LeftHandThumb3			LeftHandThumb3_End			LeftInHandIndex			LeftHandIndex1			LeftHandIndex2			LeftHandIndex3			LeftHandIndex3_End			LeftInHandMiddle			LeftHandMiddle1			LeftHandMiddle2			LeftHandMiddle3			LeftHandMiddle3_End			LeftInHandRing			LeftHandRing1			LeftHandRing2			LeftHandRing3			LeftHandRing3_End			LeftInHandPinky			LeftHandPinky1			LeftHandPinky2			LeftHandPinky3			LeftHandPinky3_End			
		X1	Y1	Z1	X2	Y2	Z2	X3	Y3	Z3	X4	Y4	Z4	X5	Y5	Z5	X6	Y6	Z6	X7	Y7	Z7	X8	Y8	Z8	X9	Y9	Z9	X10	Y10	Z10	X11	Y11	Z11	X12	Y12	Z12	X13	Y13	Z13	X14	Y14	Z14	X15	Y15	Z15	X16	Y16	Z16	X17	Y17	Z17	X18	Y18	Z18	X19	Y19	Z19	X20	Y20	Z20	X21	Y21	Z21	X22	Y22	Z22	X23	Y23	Z23	X24	Y24	Z24	X25	Y25	Z25	X26	Y26	Z26	X27	Y27	Z27	X28	Y28	Z28	X29	Y29	Z29	X30	Y30	Z30	X31	Y31	Z31	X32	Y32	Z32	X33	Y33	Z33	X34	Y34	Z34	X35	Y35	Z35	X36	Y36	Z36	X37	Y37	Z37	X38	Y38	Z38	X39	Y39	Z39	X40	Y40	Z40	X41	Y41	Z41	X42	Y42	Z42	X43	Y43	Z43	X44	Y44	Z44	X45	Y45	Z45	X46	Y46	Z46	X47	Y47	Z47	X48	Y48	Z48	X49	Y49	Z49	X50	Y50	Z50	X51	Y51	Z51	X52	Y52	Z52	X53	Y53	Z53	X54	Y54	Z54	X55	Y55	Z55	X56	Y56	Z56	X57	Y57	Z57	X58	Y58	Z58	X59	Y59	Z59	X60	Y60	Z60	X61	Y61	Z61	X62	Y62	Z62	X63	Y63	Z63	X64	Y64	Z64	X65	Y65	Z65	X66	Y66	Z66	X67	Y67	Z67	X68	Y68	Z68	X69	Y69	Z69	X70	Y70	Z70	X71	Y71	Z71	X72	Y72	Z72	

90	0.371	5198.941	914.58397	126.699	5253.811206374184	897.8421060708704	52.62743622289035	5160.553115078185	501.5579716869399	-46.08623792212393	5141.982495169951	110.40887649332477	-123.1877847147782	4990.331232035793	33.72221409020371	-35.67138579144517	5158.644117307601	905.1444607064632	211.79200079288555	5068.04179238216	502.8235346606749	284.8138466095313	4996.141411573878	77.94942762119763	373.7999841227815	4874.665078911645	-4.631814281212609	251.4777384003009	5131.127380226974	1032.0772378236254	80.84328486507863	5069.207195315797	1089.4041779523736	32.546265110662944	5001.7564746640355	1141.812068062318	-21.78110425879369	4933.2708741548595	1179.501845223303	-79.46768187129398	4858.964017973952	1220.217592259423	-139.43125911826328	4789.583212872474	1257.5749186867433	-191.39314395171007	4648.4369845886995	1332.5533791997127	-197.32056648620417	4905.355192332696	1209.3216439259263	-144.63873065070715	4972.305561380348	1203.5717918613152	-268.67268727593125	5056.246181111062	929.7386701746134	-311.4170111598655	5056.31684074665	778.7247928406423	-573.0450272373021	5076.429417313617	792.6904910834543	-622.5925035244237	5058.212199964295	793.6931327980933	-671.0606559015866	5043.355298867729	790.3570175185497	-703.209976158024	5029.113002958647	784.1245578982747	-728.6393689831613	5074.011506802675	779.6446928133097	-621.8286682933543	5077.769743430106	765.5022066223567	-688.5307034267521	5061.597829771882	754.9395914959124	-732.599373983552	5042.707765208117	752.360899123473	-754.8379554099492	5021.112314060217	752.9165995113435	-769.7649869158203	5067.0844982398785	769.1298749527542	-615.0330106455822	5067.008705569332	749.6484565522825	-676.4170663687689	5048.412271731457	736.780106769927	-723.3887884076063	5025.1663665965125	733.024828052146	-749.6832813621446	5001.315471056796	733.3197054318922	-765.7558091089928	5062.271988762774	762.0401819135777	-608.5563928734973	5058.545262726341	738.362593858836	-658.024539885388	5041.364050783993	725.8053338118132	-697.7276021545747	5018.425059952662	721.4708457758995	-722.4334464368911	4995.754455647102	721.4106036425515	-737.2341939855833	5055.219523885142	754.4509141766686	-598.9494199119925	5048.049804893892	727.9772710429922	-638.509589943411	5032.789469347469	715.932938864963	-668.1555131398678	5015.3309822570645	711.80922387936	-685.1375690899868	4994.830292450436	711.2021522242609	-697.6509605841029	4861.7934907139825	1204.2069430948766	-93.1482921947708	4806.869571632425	1128.056951982973	11.882591153049429	4956.150709480064	973.2323853080127	-193.950436418262	5032.790232443725	847.442742647504	-430.34986742320183	5077.508523451843	861.3597959267116	-457.2702946586701	5122.686146045447	850.5906151985553	-459.90961466798876	5150.855078297161	839.1768139556123	-461.7198864515777	5171.521423097083	826.3131817036243	-463.20529017081134	5069.394910708071	849.9845550663573	-462.6117585889639	5114.91251990508	833.3782141405397	-498.9461409881273	5148.793089792447	814.4557166167284	-508.36133754177433	5170.217087500308	803.1253381155854	-502.7069007853975	5188.192870305458	794.0397497926334	-490.2643146527477	5058.959630027762	839.566603521397	-460.5173118914643	5097.711063143814	817.7363077416512	-494.82841194757475	5133.159700250121	795.7581375966947	-504.68822976037006	5158.276698446609	781.4502473238632	-497.66763972217217	5177.590446763737	771.1987122894665	-483.9565861795054	5050.390713175204	832.6759937345128	-458.27858012520176	5077.5793152146	807.2644442826737	-487.57687996293913	5106.860357419659	786.7827307198909	-495.6916148998462	5130.229444352397	772.2777407725675	-488.6652301571711	5147.982525780145	762.3051572820823	-475.65278356004467	5039.470450330751	824.8536795249587	-453.32072115733246	5057.573116850158	796.8725973476301	-477.7125446433051	5078.380647784542	778.5142138026797	-483.33402890713563	5094.149272719938	766.9873588662564	-477.7849680048534	5109.140754133375	757.6083452061652	-466.0140428675983
91	0.375	5198.941	914.58397	126.699	5253.818581963252	897.8381774186597	52.63182893241474	5160.579871755603	501.5452958754303	-46.066120228265035	5141.978239164811	110.3951457554397	-123.16189584471789	4990.330256399517	33.71014497883687	-35.63832581959872	5158.63582408397	905.1492619777287	211.79061031762802	5068.0436092973	502.8280150064246	284.8233662288701	4996.100965817435	77.95925759831603	373.8023133236494	4874.625411016426	-4.622051055151426	251.47928537752622	5131.131140511369	1032.0735140328372	80.8296681108445	5069.212483042554	1089.3714020023262	32.499628745827295	5001.77097059614	1141.751532777761	-21.86335071308151	4933.308356699812	1179.4274049885769	-79.58618865520899	4859.023468895266	1220.1275743287965	-139.58738125027566	4789.660579148972	1257.4710064487867	-191.58276017591857	4648.500000100255	1332.4174475395664	-197.52858233224282	4905.400304143061	1209.2125530309945	-144.7712309872626	4972.317363470335	1203.2861258071946	-268.6338269157704	5055.926622217071	929.7040867925264	-311.04525449750855	5056.211404523746	778.8190037811659	-572.2791698193806	5076.232097147989	792.7840387807573	-621.6711730394148	5058.053260506064	793.8706758776034	-669.9952190286831	5043.24366204674	790.5977652351862	-702.0586553707546	5029.058401138153	784.4220262795133	-727.4288307918758	5073.871867385826	779.7480661101374	-620.9461434007908	5077.68724614613	765.6673682795494	-687.5183888761851	5061.595920883761	755.1851364287033	-731.4903701585454	5042.757172327197	752.6683073019684	-753.6636268016664	5021.205014432914	753.2832313790507	-768.5330725847136	5067.000769208401	769.2456859628008	-614.1940615840404	5067.0109415397965	749.8312509572437	-675.4750964045896	5048.509688618255	737.0521027481767	-722.3474739705144	5025.329170018036	733.372173535563	-748.5661123022411	5001.527334757973	733.7321993191136	-764.5770685293561	5062.226033586793	762.1628667833461	-607.7516756238462	5058.608353794104	738.5502918770991	-657.1576014492275	5041.517372369064	726.0721986864953	-696.780534539307	5018.645313034882	721.8111444699754	-721.4166415310981	4996.022667539412	721.8125152853885	-736.1611219808665	5055.217566037335	754.582382590998	-598.186865561223	5048.174104784451	728.1726748451283	-637.7163658567262	5032.996891618644	716.1936684324482	-667.3084730329764	5015.592482524614	712.1244509046037	-684.2446682864531	4995.137302282093	711.5724961385947	-696.7110972522719	4861.852920494198	1204.1470031334165	-93.30347883607818	4806.95075775496	1128.195687009938	11.708281810810197	4955.868257668438	973.3674642845588	-193.87083541912057	5032.633322722556	847.6262663305473	-429.8737164037567	5077.211508968537	861.4193738438801	-456.7149923974021	5122.33089058418	850.5582999401101	-459.42549267577846	5150.480078138655	839.0957452545911	-461.29361293803	5171.14776887999	826.2045075316398	-462.8343243933201	5069.156180164285	850.0873196727221	-462.0649868408506	5114.640999698056	833.4144141012966	-498.38228000342735	5148.517316499234	814.4460004083165	-507.85974411249475	5169.934449753079	803.0800488722741	-502.27930816277967	5187.901704238557	793.960276926508	-489.9217761077799	5058.779535055274	839.7131571674065	-459.9971759816451	5097.53069675225	817.8416216149888	-494.30599389997445	5132.982559245862	795.8193420099153	-504.23742066426087	5158.095050626302	781.471410646628	-497.3078675290771	5177.401302439051	771.1838708925702	-483.69073306214295	5050.252821954581	832.8552651679714	-457.77699626414176	5077.477644139555	807.4353987294137	-487.08730062132815	5106.769538960013	786.9214300842061	-495.2682050464815	5130.138549067372	772.3811050156442	-488.3316267985608	5147.886605538045	762.376225926794	-475.4084327899409	5039.382615857847	825.0719404725508	-452.8465471096176	5057.549154462795	797.1075213984773	-477.2639170138748	5078.377763604775	778.7330032540652	-482.9441983126673	5094.15232497295	767.1850640749933	-477.4634536001642	5109.142803787351	757.7801405383474	-465.773209488229
92	0.379	5198.941	914.58397	126.699	5253.827056737219	897.8339995397295	52.63716063408001	5160.606866108927	501.5318682530931	-46.042257575289945	5141.9739796705635	110.38038447322864	-123.13088926385997	4990.329252082427	33.69701723016546	-35.60021629935372	5158.626196884675	905.1543079239658	211.78856019753522	5068.043893364703	502.83313388281334	284.8341595875139	4996.058191555817	77.97024431744303	373.80775224628064	4874.583281146144	-4.610951004415499	251.48395208426882	5131.135899041393	1032.0698225714527	80.81475767997232	5069.218979395802	1089.3379213030419	32.45064040622761	5001.786949394639	1141.6897519614633	-21.948756301327638	4933.347734414788	1179.3520607840599	-79.70808828700729	4859.0852100496195	1220.0370065231148	-139.7471128319316	4789.740602489189	1257.3669306615714	-191.77617521634306	4648.566652821806	1332.28273730204	-197.73992443692487	4905.446231608456	1209.1007082544975	-144.9065920273248	4972.322036848597	1202.9870459197177	-268.5889960816314	5055.578308986383	929.6702890686398	-310.64721906185395	5056.073093620821	778.9240901808901	-571.3974483929629	5075.983355680533	792.8774777307932	-620.6164787010933	5057.836877430971	794.0468446543196	-668.7724930987714	5043.072700951104	790.8380309327621	-700.7334697372368	5028.944886172835	784.7212737912429	-726.0306825753564	5073.686605678533	779.8561209235157	-619.929326112364	5077.55165443145	765.8367489837324	-686.342334301851	5061.539947478052	755.4375693883744	-730.1951587184301	5042.752929003186	752.984495584919	-752.2902536344757	5021.245093209307	753.6603664395217	-767.0922515492936	5066.87817076585	769.3711607121855	-613.2219843675042	5066.970671426259	750.025952053833	-674.3719062580434	5048.564461414984	737.3395804342869	-721.1206694065935	5025.450270661667	733.737601427613	-747.2480841892917	5001.6988361769545	734.1648155686827	-763.1867354720772	5062.146141272845	762.2987282664055	-606.8154189651764	5058.638444343956	738.7561708759288	-656.1353698556724	5041.6385200968225	726.3610344873166	-695.6573162248565	5018.834803119868	722.1762805763798	-720.2090186934779	4996.261615147822	722.2413520133973	-734.8872144715349	5055.187803165706	754.7312384187805	-597.2953398200036	5048.275138362678	728.3925885255577	-636.7740067532744	5033.183183017143	716.4829724755895	-666.2961615968159	5015.834593779757	712.4708413614436	-683.176071428363	4995.426660924245	711.976139495073	-695.5868213976073	4861.9159068908775	1204.088524856409	-93.4629269503598	4807.0406691061935	1128.351142084619	11.529935108150092	4955.572709525308	973.5066707423517	-193.75757917570576	5032.482387662264	847.8168408155121	-429.31371379990577	5076.902314614597	861.4768322022804	-456.07369630162157	5121.960069403925	850.525688296381	-458.86345871543494	5150.089857334101	839.0170395766731	-460.7944624254806	5170.761494014416	826.1016023084425	-462.3941715521528	5068.9124187481275	850.1913098670619	-461.4285977564597	5114.361443564746	833.4515366359627	-497.72342168623527	5148.236088864518	814.4412443201313	-507.2663552262792	5169.648558919791	803.0434532908423	-501.7666239782037	5187.609509267775	793.8934131985812	-489.50287407684687	5058.602087575824	839.8649287706728	-459.38632661043425	5097.354198712915	817.954016152706	-493.6870200306099	5132.813132345975	795.892565923633	-503.69343112171686	5157.924266297515	781.5093536623674	-496.86294604067314	5177.225695250481	771.1902177887985	-483.34925310807046	5050.12304929986	833.0425487829477	-457.1839863417272	5077.389846180246	807.6183604997323	-486.5002198847942	5106.696995465051	787.0769837776459	-494.75012470390544	5130.069524122891	772.5062031636401	-487.91104065906666	5147.815333746665	762.4733101451274	-475.08602480338004	5039.3095320125585	825.3017116134329	-452.28087612675597	5057.549206482815	797.3596619067963	-476.71792150380827	5078.404031724051	778.9737193381533	-482.4591204763386	5094.187932299709	767.4086560554402	-477.05222864873576	5109.18031853545	757.9818462573479	-465.4505314490043
93	0.383	5198.941	914.58397	126.699	5253.836620263305	897.8295655841937	52.643435624070655	5160.6340429354	501.51769517036064	-46.01465385080944	5141.969715556146	110.3645978084438	-123.09476106676918	4990.328216193942	33.682836570080376	-35.55705591949937	5158.615240817858	905.1596018273268	211.78584439943648	5068.04263111637	502.8388983986276	284.84621780908134	4996.013103085042	77.98239326933377	373.81629650250693	4874.538703478948	-4.598506885460035	251.49173316787284	5131.141680048398	1032.066179754433	80.79856112857536	5069.226721340993	1089.3037927845369	32.39933665029851	5001.804453837345	1141.6268270363544	-22.037251187083108	4933.389041990092	1179.2759545966383	-79.8332747196691	4859.149269799217	1219.9460741957987	-139.91031050973314	4789.82330800699	1257.2629158826428	-191.97321344642089	4648.637003799074	1332.1495289114212	-197.9544260358665	4905.492992170128	1208.986284664343	-145.04467503904982	4972.319529420748	1202.6748149699501	-268.5380658696367	5055.201496050141	929.6376686617658	-310.22281279446213	5055.901779409908	779.040852989036	-570.3997182807415	5075.683077754253	792.9716807214832	-619.4282218521589	5057.562935438369	794.2224707534303	-667.3922690643652	5042.842287335589	791.078613331575	-699.2342054807535	5028.772308037895	785.0230680958751	-724.4447087585542	5073.455558743448	779.969732810766	-618.7780172485187	5077.362718143967	766.0112733276653	-685.0022862521605	5061.429614600991	755.6977883360619	-728.7134727719642	5042.694738366281	753.3103116757798	-750.7175761852376	5021.232269433247	754.0487880658108	-765.44228049041	5066.716508829408	769.5071586341393	-612.1165896788854	5066.887599237898	750.2334583987363	-673.1072590044199	5048.576241425485	737.643406961987	-719.7081246334726	5025.529315692855	734.1219170942932	-745.7289563124967	5001.829639003631	734.6182886063832	-761.5845875271345	5062.032097696678	762.4486137521827	-605.7474416916374	5058.635210756307	738.9811046043795	-654.9576275677842	5041.727120681934	726.6726850919703	-694.3577198248801	5018.99315095113	722.5670370743389	-718.810360437067	4996.470933814791	722.6978294790773	-733.4122715853349	5055.130002641441	754.898309028973	-596.2746743056249	5048.3525602542695	728.6378533134576	-635.6823180052924	5033.347953062414	716.8016643105859	-665.1183790023422	5016.056918605247	712.8491622149288	-681.9315872063465	4995.697982406567	712.4137885064916	-694.2779580622419	4861.982493851911	1204.0316744811375	-93.62651372440132	4807.139362508383	1128.5234807599127	11.347609376175315	4955.264309460316	973.6502270681556	-193.6103679883538	5032.337402516277	848.0150252198175	-428.6695867898437	5076.580895894954	861.5329102835075	-455.34608656386405	5121.573579411837	850.4936938236883	-458.223103532317	5149.684263811793	838.941718315893	-460.2219620604644	5170.362398606459	826.0055657557408	-461.8843046556335	5068.6635515466805	850.2972320064569	-460.7022655542067	5114.073666639715	833.4904671269401	-496.96914136495843	5147.949141839359	814.4424634638167	-506.58066123763825	5169.359113276805	803.0166470871889	-501.16828562842034	5187.315962200776	793.8403210080816	-489.0070020362235	5058.427194103915	840.0225819100662	-458.68443711347993	5097.181358251215	818.0743064093907	-492.9710667479522	5132.65111918126	795.9787597341334	-503.0557450016766	5157.763999837224	781.565121029203	-496.3322953227516	5177.063255594894	771.2188691492198	-482.93151836903104	5050.00129137186	833.238473262073	-456.4992257292008	5077.315703283927	807.8140634289948	-485.81522842286967	5106.642428831262	787.2502370060877	-494.1368842233511	5130.02202672394	772.653967843769	-487.40292072705927	5147.7683445705525	762.5974081451548	-474.68496352885643	5039.25108650754	825.5435770513706	-451.623387721063	5057.573050495615	797.6296716444183	-476.0741629143811	5078.459163067189	779.2370932633805	-481.87833678146364	5094.255771789015	767.6589245839386	-476.550790209726	5109.252954344052	758.2143072421835	-465.0454661433889
